<?xml version="1.0" standalone="yes"?>
<svg width="16" height="16">
<path style="fill:#000000; stroke:none;" d="M0 0L0 373L371 373L371 0L0 0z"/>
<path style="fill:#6cbeec; stroke:none;" d="M176 9L176 10L197 10L176 9z"/>
<path style="fill:#5eb7eb; stroke:none;" d="M165 10L165 11L169 11L165 10z"/>
<path style="fill:#1497e2; stroke:none;" d="M169 10.4244C137.436 14.6194 109.411 23.7809 83 42.0255C64.7197 54.6532 48.7193 71.3271 36.6921 90C-28.9441 191.904 24.719 333.901 144 362.87C164.59 367.871 186.985 369.262 208 366.715C233.953 363.569 258.654 354.88 281 341.399C299.077 330.494 315.466 315.713 328.349 299C388.747 220.645 374.276 100.913 292 43.0363C273.152 29.7776 252.381 20.1252 230 14.6682C210.733 9.97037 188.815 7.79089 169 10.4244z"/>
<path style="fill:#5eb7eb; stroke:none;" d="M204 10L204 11L208 11L204 10z"/>
<path style="fill:#7bc4ef; stroke:none;" d="M158 11L158 12L161 12L158 11M152 12L152 13L155 13L152 12z"/>
<path style="fill:#6cbeec; stroke:none;" d="M143.667 14.3333L144.333 14.6667L143.667 14.3333z"/>
<path style="fill:#89cbf0; stroke:none;" d="M228.667 14.3333L229.333 14.6667L228.667 14.3333z"/>
<path style="fill:#a7d8f4; stroke:none;" d="M236.667 16.3333L237.333 16.6667L236.667 16.3333M240 17L241 18L240 17M246 19L247 20L246 19z"/>
<path style="fill:#177eb8; stroke:none;" d="M178 20L178 21L196 21L178 20z"/>
<path style="fill:#21333b; stroke:none;" d="M168 21.4244C138.168 25.3893 110.218 35.7595 86 53.8951C18.8723 104.163 -0.63533 199.295 40.7191 272C49.961 288.248 61.6753 303.318 76 315.41C92.5358 329.368 111.46 340.854 132 347.921C157.655 356.748 186.218 358.065 213 354.816C232.774 352.416 252.689 344.205 270 334.769C286.366 325.849 300.516 313.706 313 300C358.488 250.058 367.829 169.316 335.691 110C312.313 66.8508 271.816 35.8334 224 24.9892C206.119 20.9339 186.316 18.99 168 21.4244z"/>
<path style="fill:#a7d8f4; stroke:none;" d="M254 22L255 23L254 22M269 29L270 30L269 29z"/>
<path style="fill:#1972a3; stroke:none;" d="M169 74L169 75L174 75L169 74z"/>
<path style="fill:#1497e2; stroke:none;" d="M181 300L182 272C164.472 269.773 148.219 265.352 134 254.335C123.368 246.097 114.853 236.023 108.756 224C81.0478 169.356 124.336 98.4978 187 101.04C205.123 101.775 224.112 109.639 238 121.084C246.798 128.335 254.066 136.796 259.244 147C265.828 159.976 269 174.493 269 189L226 188C233.846 204.825 255.122 220.573 267.961 234C271.454 237.654 277.376 247.767 283 247.794C288.323 247.82 295.543 238.446 299 235C312.479 221.564 335.038 207.79 344 191L297 190C297 166.152 292.532 144.311 279.305 124C268.568 107.513 253.551 94.5285 236 85.7531C219.917 77.7116 202.917 74 185 74C167.553 74 150.813 77.1877 135 84.7839C122.532 90.7733 110.412 99.6006 101.286 110C50.3271 168.072 69.4219 257.581 139 290.777C152.349 297.146 166.265 300 181 300z"/>
<path style="fill:#1972a3; stroke:none;" d="M179 101L179 102L192 102L179 101z"/>
<path style="fill:#1a658e; stroke:none;" d="M201 103L201 104L204 104L201 103M160 141L160 142L196 142C186.44 137.989 170.387 141 160 141z"/>
<path style="fill:#1497e2; stroke:none;" d="M158.04 142.858C152.43 145.25 152.011 150.685 152 156L152 189C152 199.429 147.741 222.153 153.742 230.895C157.08 235.756 162.684 235.991 168 236C181.026 236.022 203.049 240.226 214.985 234.91C226.556 229.758 222 206.283 222 196C222 187.533 224.337 174.975 221.397 167C218.782 159.909 203.379 144.168 196 142.318C189.632 140.722 181.548 142 175 142C169.85 142 162.866 140.8 158.04 142.858z"/>
<path style="fill:#1872a3; stroke:none;" d="M151 151L151 227L152 227L152 175L151 151z"/>
<path style="fill:#1972a3; stroke:none;" d="M195 151L195 163L196 163L195 151z"/>
<path style="fill:#21333b; stroke:none;" d="M196 151C196 165.921 198.079 168 213 168L196 151z"/>
<path style="fill:#6cbeec; stroke:none;" d="M362.333 152.667L362.667 153.333L362.333 152.667z"/>
<path style="fill:#6cbeed; stroke:none;" d="M9 161L9 164L10 164L9 161z"/>
<path style="fill:#1c5879; stroke:none;" d="M353 166L353 170L354 170L353 166z"/>
<path style="fill:#4eb1e9; stroke:none;" d="M8 168L8 174L9 174L8 168z"/>
<path style="fill:#40abe8; stroke:none;" d="M365 174L365 182L366 182L365 174z"/>
<path style="fill:#1d4c64; stroke:none;" d="M354 175L354 197L355 197L354 175z"/>
<path style="fill:#1872a3; stroke:none;" d="M268 177L268 189L269 189L268 177z"/>
<path style="fill:#89cbf0; stroke:none;" d="M7 180L7 197L8 197L7 180z"/>
<path style="fill:#1e4c65; stroke:none;" d="M297 180L297 190L298 190L297 180z"/>
<path style="fill:#177eb8; stroke:none;" d="M99 181L99 192L100 192L99 181z"/>
<path style="fill:#1972a3; stroke:none;" d="M165 188L165 189L208 189C196.774 184.29 177.219 188 165 188z"/>
<path style="fill:#177eb8; stroke:none;" d="M236 188L236 189L248 189L236 188z"/>
<path style="fill:#1c5879; stroke:none;" d="M248 188L248 189L262 189L248 188z"/>
<path style="fill:#21333b; stroke:none;" d="M210 194C208.505 185.039 183.474 189 176 189C173.214 189 165.947 187.746 164.176 190.545C161.672 194.501 171.468 193.999 173 194L180 194L192 194L210 194z"/>
<path style="fill:#177eb8; stroke:none;" d="M304 190L304 191L317 191L304 190z"/>
<path style="fill:#1c5879; stroke:none;" d="M317 190L317 191L330 191L317 190M165 194L165 195L208 195C196.774 190.29 177.219 194 165 194z"/>
<path style="fill:#1872a3; stroke:none;" d="M354 197L354 204L355 204L354 197z"/>
<path style="fill:#7bc4ef; stroke:none;" d="M365 198L365 203L366 203L365 198z"/>
<path style="fill:#1a658e; stroke:none;" d="M165 200L165 201L209 201C197.537 196.19 177.48 200 165 200z"/>
<path style="fill:#21333b; stroke:none;" d="M210 206L210 201L175 201C172.633 201 164.593 199.792 163.921 203.17C163.159 207.006 172.062 206 174 206L210 206z"/>
<path style="fill:#1a658e; stroke:none;" d="M73 205L73 208L74 208L73 205z"/>
<path style="fill:#7ac4ee; stroke:none;" d="M8 206L8 209L9 209L8 206z"/>
<path style="fill:#1972a3; stroke:none;" d="M165 206L165 207L208 207C196.774 202.29 177.219 206 165 206z"/>
<path style="fill:#1e4c65; stroke:none;" d="M165 212L165 213L191 213L165 212z"/>
<path style="fill:#21333b; stroke:none;" d="M164.662 214.008C161.905 216.322 166.31 217.786 168.019 217.941C172.911 218.385 187.482 220.228 191.338 216.992C194.095 214.678 189.69 213.214 187.981 213.059C183.089 212.615 168.518 210.772 164.662 214.008z"/>
<path style="fill:#7ac4ee; stroke:none;" d="M9.33333 214.667L9.66667 215.333L9.33333 214.667z"/>
<path style="fill:#1a658e; stroke:none;" d="M105.333 216.667L105.667 217.333L105.333 216.667z"/>
<path style="fill:#7bc4ef; stroke:none;" d="M363.333 217.667L363.667 218.333L363.333 217.667z"/>
<path style="fill:#7ac4ee; stroke:none;" d="M10.3333 220.667L10.6667 221.333L10.3333 220.667z"/>
<path style="fill:#89cbf0; stroke:none;" d="M362.333 223.667L362.667 224.333L362.333 223.667z"/>
<path style="fill:#7ac4ee; stroke:none;" d="M11.3333 225.667L11.6667 226.333L11.3333 225.667z"/>
<path style="fill:#98d1f2; stroke:none;" d="M360.333 232.667L360.667 233.333L360.333 232.667z"/>
<path style="fill:#a7d8f4; stroke:none;" d="M348 266L349 267L348 266M346 270L347 271L346 270z"/>
<path style="fill:#1a658e; stroke:none;" d="M178 271L178 272L182 272L178 271z"/>
<path style="fill:#1e4c65; stroke:none;" d="M182 272L182 284L183 284L182 272z"/>
<path style="fill:#177eb8; stroke:none;" d="M181 288L181 300L182 300L181 288z"/>
<path style="fill:#1972a3; stroke:none;" d="M204 355L204 356L209 356L204 355z"/>
<path style="fill:#1c5879; stroke:none;" d="M177 356L177 357L199 357L177 356z"/>
<path style="fill:#6cbeec; stroke:none;" d="M220.667 364.333L221.333 364.667L220.667 364.333z"/>
<path style="fill:#4eb1e9; stroke:none;" d="M174 367L174 368L183 368L174 367z"/>
</svg>
