<svg width="33" height="33" viewBox="0 0 33 33" fill="none" xmlns="http://www.w3.org/2000/svg">
<circle cx="16.5" cy="16.5" r="16.25" fill="#1497E2" stroke="#1497E2" stroke-width="0.5"/>
<g clip-path="url(#clip0_4_20)">
<path d="M23.5522 9.0025C19.4012 4.60113 12.4039 4.39623 8.0025 8.54718C3.60112 12.6981 3.39623 19.6955 7.54718 24.0969C9.62265 26.2976 12.4075 27.5269 15.2264 27.59L15.3084 24.791C13.2092 24.7295 11.1138 23.8706 9.52894 22.1901C6.39686 18.869 6.54939 13.6599 9.87043 10.5278C13.1915 7.39572 18.4006 7.54825 21.5327 10.8693C23.0987 12.5298 23.737 14.6495 23.6555 16.7676L19.4182 16.6435L25.0786 22.6454L31.0805 16.985L26.4545 16.8495C26.5364 14.0506 25.6088 11.1832 23.5333 8.9825L23.5522 9.0025Z" fill="#21333B"/>
</g>
<defs>
<clipPath id="clip0_4_20">
<rect width="22" height="22" fill="white" transform="translate(16.005 1) rotate(46.6772)"/>
</clipPath>
</defs>
</svg>
