<svg width="32" height="32" viewBox="0 0 32 32" fill="none" xmlns="http://www.w3.org/2000/svg">
<circle cx="16" cy="16" r="16" fill="#000053"/>
<g clip-path="url(#clip0_5_37)">
<path d="M22.8385 8.7297C18.8133 4.4617 12.028 4.26301 7.76 8.28818C3.492 12.3133 3.29331 19.0987 7.31848 23.3667C9.33106 25.5007 12.0315 26.6927 14.765 26.7539L14.8445 24.0398C12.8089 23.9802 10.7771 23.1472 9.24018 21.5176C6.20301 18.2972 6.35092 13.2459 9.57132 10.2088C12.7917 7.17161 17.843 7.31952 20.8802 10.5399C22.3988 12.1501 23.0177 14.2056 22.9387 16.2595L18.8298 16.1392L24.3187 21.9592L30.1387 16.4703L25.6528 16.339C25.7323 13.6248 24.8328 10.8443 22.8202 8.7103L22.8385 8.7297Z" fill="white"/>
</g>
<defs>
<clipPath id="clip0_5_37">
<rect width="21.3333" height="21.3333" fill="white" transform="translate(15.52 0.969696) rotate(46.6772)"/>
</clipPath>
</defs>
</svg>
