<svg width="35" height="35" viewBox="0 0 35 35" fill="none" xmlns="http://www.w3.org/2000/svg">
<path d="M13.125 24.7917H17.5M5.83333 5.83334V29.1667C5.83333 29.9402 6.14062 30.6821 6.6876 31.2291C7.23458 31.7761 7.97645 32.0833 8.75 32.0833H26.25C27.0235 32.0833 27.7654 31.7761 28.3124 31.2291C28.8594 30.6821 29.1667 29.9402 29.1667 29.1667V12.1654C29.1666 11.7769 29.0889 11.3922 28.9382 11.0341C28.7874 10.676 28.5666 10.3516 28.2887 10.08L21.8137 3.74792C21.2689 3.21513 20.5371 2.91677 19.775 2.91667H8.75C7.97645 2.91667 7.23458 3.22396 6.6876 3.77094C6.14062 4.31792 5.83333 5.05979 5.83333 5.83334V5.83334ZM13.125 18.9583H21.875H13.125Z" stroke="black" stroke-width="2" stroke-linecap="round" stroke-linejoin="round"/>
<path d="M20.4167 2.91667V8.75001C20.4167 9.52355 20.724 10.2654 21.2709 10.8124C21.8179 11.3594 22.5598 11.6667 23.3333 11.6667H29.1667" stroke="black" stroke-width="2" stroke-linejoin="round"/>
</svg>
