<svg width="35" height="32" viewBox="0 0 35 32" fill="none" xmlns="http://www.w3.org/2000/svg">
<path d="M3.33333 23.3333H15V26.6667H3.33333C2.44928 26.6667 1.60143 26.3155 0.976311 25.6904C0.351189 25.0652 0 24.2174 0 23.3333V3.33333C0 1.48333 1.48333 0 3.33333 0H13.3333L16.6667 3.33333H30C30.8841 3.33333 31.7319 3.68452 32.357 4.30964C32.9821 4.93476 33.3333 5.78261 33.3333 6.66667V10.2833L30.6833 7.65L30 6.95V6.66667H3.33333V23.3333ZM35 16.6667V28.3333C35 30.1833 33.5167 31.6667 31.6667 31.6667H21.6667C20.7826 31.6667 19.9348 31.3155 19.3096 30.6904C18.6845 30.0652 18.3333 29.2174 18.3333 28.3333V13.3333C18.3333 11.5 19.8333 10 21.6667 10H28.3333L35 16.6667ZM31.6667 18.3333H26.6667V13.3333H21.6667V28.3333H31.6667V18.3333Z" fill="#06027D"/>
</svg>
