<svg width="40" height="40" viewBox="0 0 40 40" fill="none" xmlns="http://www.w3.org/2000/svg">
<path d="M33.3525 17.8775L33.3588 17.8325C33.3584 15.48 32.574 13.1948 31.1295 11.3381C29.6849 9.48134 27.6627 8.15907 25.3826 7.58032C23.1024 7.00157 20.6944 7.19935 18.5392 8.1424C16.3841 9.08545 14.6047 10.72 13.4825 12.7875C9.82375 10.8737 5.4025 13.3738 5.16875 17.5013C3.65401 18.0531 2.34563 19.0574 1.42102 20.378C0.496411 21.6986 0.000313211 23.2716 0 24.8837C0.000331425 26.9696 0.829069 28.9699 2.30397 30.4448C3.77887 31.9197 5.77917 32.7484 7.865 32.7487H32.5463C41.9338 32.7225 42.69 18.9275 33.3538 17.8788L33.3525 17.8775Z" fill="#06027D"/>
</svg>
