<svg width="195" height="33" viewBox="0 0 195 33" fill="none" xmlns="http://www.w3.org/2000/svg">
<circle cx="15" cy="15" r="14.75" fill="#1497E2" stroke="#1497E2" stroke-width="0.5"/>
<g clip-path="url(#clip0_5_38)">
<path d="M21.4111 8.18409C17.6375 4.18284 11.2763 3.99657 7.275 7.77016C3.27375 11.5438 3.08748 17.905 6.86107 21.9062C8.74787 23.9069 11.2795 25.0244 13.8422 25.0818L13.9167 22.5373C12.0083 22.4814 10.1035 21.7005 8.66267 20.1728C5.81532 17.1537 5.95399 12.4181 8.97312 9.57073C11.9922 6.72338 16.7278 6.86205 19.5752 9.88117C20.9988 11.3907 21.5791 13.3177 21.505 15.2433L17.6529 15.1305L22.7987 20.5867L28.255 15.4409L24.0495 15.3178C24.124 12.7733 23.2807 10.1665 21.3939 8.1659L21.4111 8.18409Z" fill="#21333B"/>
</g>
<path d="M51.2127 13.6289H47.6353C47.57 13.1661 47.4366 12.755 47.2351 12.3956C47.0336 12.0308 46.775 11.7204 46.4592 11.4645C46.1433 11.2086 45.7785 11.0125 45.3647 10.8764C44.9563 10.7403 44.5125 10.6722 44.0334 10.6722C43.1676 10.6722 42.4135 10.8873 41.771 11.3175C41.1284 11.7422 40.6302 12.3629 40.2763 13.1797C39.9223 13.991 39.7454 14.9766 39.7454 16.1364C39.7454 17.3288 39.9223 18.3307 40.2763 19.142C40.6357 19.9534 41.1366 20.5659 41.7791 20.9798C42.4216 21.3936 43.1649 21.6005 44.0089 21.6005C44.4826 21.6005 44.9209 21.5379 45.3239 21.4126C45.7322 21.2874 46.0943 21.105 46.4102 20.8654C46.726 20.6204 46.9873 20.3236 47.1942 19.9751C47.4066 19.6267 47.5536 19.2292 47.6353 18.7827L51.2127 18.799C51.1201 19.5668 50.8887 20.3073 50.5185 21.0206C50.1536 21.7285 49.6609 22.3628 49.0401 22.9237C48.4248 23.479 47.6897 23.9201 46.8349 24.2468C45.9854 24.5681 45.0244 24.7287 43.9517 24.7287C42.4598 24.7287 41.1257 24.3911 39.9496 23.7159C38.7789 23.0407 37.8532 22.0633 37.1726 20.7837C36.4974 19.5041 36.1598 17.955 36.1598 16.1364C36.1598 14.3123 36.5028 12.7604 37.1889 11.4808C37.875 10.2012 38.8061 9.22656 39.9822 8.55682C41.1584 7.88163 42.4815 7.54403 43.9517 7.54403C44.9209 7.54403 45.8194 7.68016 46.647 7.95241C47.4801 8.22467 48.2179 8.62216 48.8604 9.14489C49.503 9.66217 50.0257 10.2965 50.4286 11.0479C50.837 11.7994 51.0984 12.6597 51.2127 13.6289ZM59.3517 24.745C58.083 24.745 56.9859 24.4755 56.0602 23.9364C55.14 23.3919 54.4294 22.6351 53.9284 21.6658C53.4275 20.6912 53.177 19.5613 53.177 18.2763C53.177 16.9804 53.4275 15.8478 53.9284 14.8786C54.4294 13.9039 55.14 13.147 56.0602 12.608C56.9859 12.0634 58.083 11.7912 59.3517 11.7912C60.6204 11.7912 61.7149 12.0634 62.6351 12.608C63.5608 13.147 64.2741 13.9039 64.775 14.8786C65.276 15.8478 65.5265 16.9804 65.5265 18.2763C65.5265 19.5613 65.276 20.6912 64.775 21.6658C64.2741 22.6351 63.5608 23.3919 62.6351 23.9364C61.7149 24.4755 60.6204 24.745 59.3517 24.745ZM59.3681 22.0497C59.9453 22.0497 60.4271 21.8864 60.8137 21.5597C61.2003 21.2275 61.4917 20.7756 61.6877 20.2038C61.8891 19.6321 61.9899 18.9814 61.9899 18.2518C61.9899 17.5221 61.8891 16.8714 61.6877 16.2997C61.4917 15.728 61.2003 15.276 60.8137 14.9439C60.4271 14.6117 59.9453 14.4457 59.3681 14.4457C58.7855 14.4457 58.2954 14.6117 57.8979 14.9439C57.5059 15.276 57.2091 15.728 57.0076 16.2997C56.8116 16.8714 56.7136 17.5221 56.7136 18.2518C56.7136 18.9814 56.8116 19.6321 57.0076 20.2038C57.2091 20.7756 57.5059 21.2275 57.8979 21.5597C58.2954 21.8864 58.7855 22.0497 59.3681 22.0497ZM71.2683 17.2472V24.5H67.7889V11.9545H71.1049V14.168H71.252C71.5297 13.4383 71.9952 12.8611 72.6486 12.4364C73.302 12.0063 74.0943 11.7912 75.0254 11.7912C75.8966 11.7912 76.6562 11.9818 77.3042 12.3629C77.9521 12.7441 78.4558 13.2886 78.8152 13.9964C79.1745 14.6989 79.3542 15.5374 79.3542 16.5121V24.5H75.8748V17.1328C75.8803 16.3651 75.6842 15.7661 75.2868 15.3359C74.8893 14.9003 74.342 14.6825 73.6451 14.6825C73.1768 14.6825 72.763 14.7833 72.4036 14.9847C72.0497 15.1862 71.772 15.4802 71.5705 15.8668C71.3745 16.248 71.2737 16.7081 71.2683 17.2472ZM93.3433 11.9545L88.9573 24.5H85.0368L80.6508 11.9545H84.3263L86.9317 20.9308H87.0624L89.6597 11.9545H93.3433ZM100.437 24.745C99.1464 24.745 98.0356 24.4837 97.1045 23.9609C96.1788 23.4328 95.4655 22.6868 94.9646 21.723C94.4636 20.7538 94.2132 19.6076 94.2132 18.2844C94.2132 16.994 94.4636 15.8614 94.9646 14.8867C95.4655 13.9121 96.1707 13.1525 97.08 12.608C97.9948 12.0634 99.0674 11.7912 100.298 11.7912C101.126 11.7912 101.896 11.9246 102.609 12.1914C103.328 12.4528 103.954 12.8475 104.488 13.3757C105.027 13.9039 105.446 14.5682 105.746 15.3686C106.045 16.1636 106.195 17.0947 106.195 18.1619V19.1175H95.6017V16.9613H102.92C102.92 16.4603 102.811 16.0166 102.593 15.63C102.375 15.2434 102.073 14.9412 101.687 14.7234C101.305 14.5001 100.862 14.3885 100.355 14.3885C99.827 14.3885 99.3588 14.511 98.9504 14.756C98.5474 14.9956 98.2316 15.3196 98.0029 15.728C97.7742 16.1309 97.6572 16.5801 97.6517 17.0756V19.1257C97.6517 19.7464 97.7661 20.2828 97.9948 20.7347C98.2289 21.1867 98.5583 21.5352 98.983 21.7802C99.4078 22.0252 99.9114 22.1477 100.494 22.1477C100.881 22.1477 101.235 22.0933 101.556 21.9844C101.877 21.8755 102.152 21.7121 102.381 21.4943C102.609 21.2765 102.784 21.0097 102.903 20.6939L106.122 20.9062C105.958 21.6795 105.623 22.3546 105.117 22.9318C104.616 23.5036 103.968 23.95 103.173 24.2713C102.383 24.5871 101.471 24.745 100.437 24.745ZM108.466 24.5V11.9545H111.839V14.1435H111.97C112.198 13.3648 112.582 12.7768 113.121 12.3793C113.66 11.9763 114.281 11.7749 114.983 11.7749C115.158 11.7749 115.345 11.7857 115.547 11.8075C115.748 11.8293 115.925 11.8593 116.078 11.8974V14.9847C115.915 14.9357 115.689 14.8922 115.4 14.854C115.111 14.8159 114.847 14.7969 114.608 14.7969C114.096 14.7969 113.638 14.9085 113.236 15.1317C112.838 15.3495 112.522 15.6545 112.288 16.0465C112.059 16.4386 111.945 16.8905 111.945 17.4023V24.5H108.466ZM128.315 15.532L125.13 15.728C125.075 15.4557 124.958 15.2107 124.778 14.9929C124.599 14.7696 124.362 14.5927 124.068 14.462C123.779 14.3259 123.433 14.2578 123.031 14.2578C122.491 14.2578 122.037 14.3722 121.667 14.6009C121.296 14.8241 121.111 15.1236 121.111 15.4993C121.111 15.7988 121.231 16.052 121.471 16.2589C121.71 16.4658 122.121 16.6319 122.704 16.7571L124.974 17.2145C126.194 17.465 127.103 17.8679 127.702 18.4233C128.301 18.9787 128.601 19.7083 128.601 20.6122C128.601 21.4344 128.359 22.1559 127.874 22.7766C127.395 23.3974 126.736 23.882 125.897 24.2305C125.064 24.5735 124.103 24.745 123.014 24.745C121.353 24.745 120.03 24.3993 119.045 23.7077C118.065 23.0108 117.49 22.0633 117.321 20.8654L120.744 20.6857C120.847 21.1921 121.098 21.5787 121.495 21.8455C121.893 22.1069 122.402 22.2376 123.022 22.2376C123.632 22.2376 124.122 22.1205 124.493 21.8864C124.868 21.6468 125.059 21.3391 125.064 20.9634C125.059 20.6476 124.925 20.389 124.664 20.1875C124.403 19.9806 124 19.8227 123.455 19.7138L121.283 19.2809C120.058 19.0359 119.145 18.6112 118.547 18.0067C117.953 17.4023 117.656 16.6319 117.656 15.6953C117.656 14.8894 117.874 14.1952 118.31 13.6126C118.751 13.0299 119.369 12.5807 120.164 12.2649C120.964 11.9491 121.901 11.7912 122.973 11.7912C124.558 11.7912 125.805 12.1261 126.714 12.7958C127.629 13.4656 128.163 14.3776 128.315 15.532ZM136.46 24.745C135.191 24.745 134.094 24.4755 133.169 23.9364C132.248 23.3919 131.538 22.6351 131.037 21.6658C130.536 20.6912 130.285 19.5613 130.285 18.2763C130.285 16.9804 130.536 15.8478 131.037 14.8786C131.538 13.9039 132.248 13.147 133.169 12.608C134.094 12.0634 135.191 11.7912 136.46 11.7912C137.729 11.7912 138.823 12.0634 139.744 12.608C140.669 13.147 141.382 13.9039 141.883 14.8786C142.384 15.8478 142.635 16.9804 142.635 18.2763C142.635 19.5613 142.384 20.6912 141.883 21.6658C141.382 22.6351 140.669 23.3919 139.744 23.9364C138.823 24.4755 137.729 24.745 136.46 24.745ZM136.476 22.0497C137.054 22.0497 137.536 21.8864 137.922 21.5597C138.309 21.2275 138.6 20.7756 138.796 20.2038C138.998 19.6321 139.098 18.9814 139.098 18.2518C139.098 17.5221 138.998 16.8714 138.796 16.2997C138.6 15.728 138.309 15.276 137.922 14.9439C137.536 14.6117 137.054 14.4457 136.476 14.4457C135.894 14.4457 135.404 14.6117 135.006 14.9439C134.614 15.276 134.318 15.728 134.116 16.2997C133.92 16.8714 133.822 17.5221 133.822 18.2518C133.822 18.9814 133.92 19.6321 134.116 20.2038C134.318 20.7756 134.614 21.2275 135.006 21.5597C135.404 21.8864 135.894 22.0497 136.476 22.0497ZM144.897 24.5V11.9545H148.271V14.1435H148.401C148.63 13.3648 149.014 12.7768 149.553 12.3793C150.092 11.9763 150.713 11.7749 151.415 11.7749C151.589 11.7749 151.777 11.7857 151.979 11.8075C152.18 11.8293 152.357 11.8593 152.509 11.8974V14.9847C152.346 14.9357 152.12 14.8922 151.832 14.854C151.543 14.8159 151.279 14.7969 151.039 14.7969C150.527 14.7969 150.07 14.9085 149.667 15.1317C149.27 15.3495 148.954 15.6545 148.72 16.0465C148.491 16.4386 148.377 16.8905 148.377 17.4023V24.5H144.897ZM160.303 24.5H154.374V7.77273H160.352C162.035 7.77273 163.483 8.1076 164.698 8.77734C165.912 9.44164 166.846 10.3973 167.499 11.6442C168.158 12.8911 168.487 14.383 168.487 16.12C168.487 17.8625 168.158 19.3598 167.499 20.6122C166.846 21.8646 165.906 22.8256 164.681 23.4954C163.462 24.1651 162.002 24.5 160.303 24.5ZM157.91 21.4698H160.156C161.202 21.4698 162.081 21.2847 162.795 20.9144C163.513 20.5387 164.052 19.9588 164.412 19.1747C164.777 18.3852 164.959 17.367 164.959 16.12C164.959 14.884 164.777 13.8739 164.412 13.0898C164.052 12.3058 163.516 11.7286 162.803 11.3583C162.089 10.988 161.21 10.8029 160.165 10.8029H157.91V21.4698ZM173.047 24.5H169.257L175.032 7.77273H179.589L185.356 24.5H181.566L177.376 11.5952H177.245L173.047 24.5ZM172.81 17.9251H181.762V20.6857H172.81V17.9251ZM189.337 24.7124C188.798 24.7124 188.335 24.5218 187.949 24.1406C187.568 23.754 187.377 23.2912 187.377 22.7521C187.377 22.2185 187.568 21.7611 187.949 21.38C188.335 20.9988 188.798 20.8082 189.337 20.8082C189.86 20.8082 190.317 20.9988 190.709 21.38C191.101 21.7611 191.297 22.2185 191.297 22.7521C191.297 23.1115 191.205 23.4409 191.02 23.7404C190.84 24.0344 190.603 24.2713 190.309 24.451C190.015 24.6252 189.691 24.7124 189.337 24.7124Z" fill="#21333B"/>
<defs>
<clipPath id="clip0_5_38">
<rect width="20" height="20" fill="white" transform="translate(14.55 0.909088) rotate(46.6772)"/>
</clipPath>
</defs>
</svg>
