<svg width="41" height="26" viewBox="0 0 41 26" fill="none" xmlns="http://www.w3.org/2000/svg">
<path d="M12.858 13.694C13.2428 12.1393 14.0381 10.7165 15.1609 9.57441C16.2837 8.43229 17.6927 7.61276 19.2406 7.20152C20.7885 6.79027 22.4185 6.8024 23.9601 7.23664C25.5017 7.67089 26.8983 8.51129 28.004 9.67C28.7383 9.42567 29.5029 9.28432 30.276 9.25V8.99C30.276 4.026 26.586 0 22.036 0C18.784 0 15.996 2.076 14.656 5.062C13.66 4.37261 12.4793 3.99969 11.268 3.992C7.698 3.992 4.806 7.146 4.806 11.038C4.806 11.458 4.854 11.866 4.92 12.264C2.166 12.536 0.01 15.352 0.01 18.424C0.01 18.456 0.018 18.482 0.018 18.514C0.016 18.542 0 18.57 0 18.598C0 19.828 0.428 20.952 1.122 21.86C1.61627 22.5288 2.26163 23.0712 3.00544 23.4431C3.74924 23.815 4.57042 24.0058 5.402 24H7.924C7.40834 23.0009 7.13562 21.8943 7.128 20.77C7.12909 19.1129 7.69861 17.5063 8.74145 16.2185C9.78429 14.9307 11.2373 14.0396 12.858 13.694ZM35.778 17.554C35.728 17.554 35.678 17.568 35.628 17.57C35.642 17.422 35.672 17.278 35.672 17.126C35.672 16.4261 35.5341 15.7332 35.2662 15.0866C34.9984 14.44 34.6057 13.8526 34.1108 13.3578C33.6158 12.8631 33.0282 12.4706 32.3815 12.203C31.7349 11.9354 31.0419 11.7977 30.342 11.798C29.216 11.7997 28.1199 12.1613 27.214 12.83C26.6672 11.7983 25.8502 10.9348 24.8504 10.3316C23.8506 9.72851 22.7056 9.40856 21.538 9.406C19.821 9.406 18.1743 10.0881 16.9602 11.3022C15.7461 12.5163 15.064 14.163 15.064 15.88C15.064 15.926 15.076 15.966 15.078 16.012C14.8409 15.9697 14.6008 15.9456 14.36 15.94C13.6429 15.9395 12.9346 16.0987 12.2867 16.4061C11.6388 16.7135 11.0675 17.1614 10.6144 17.7172C10.1612 18.273 9.83757 18.9228 9.66695 19.6193C9.49634 20.3159 9.48303 21.0417 9.628 21.744C9.85356 22.9402 10.4898 24.0201 11.4268 24.7971C12.3638 25.5742 13.5427 25.9996 14.76 26H36.172V25.962C37.2557 25.8676 38.2609 25.3575 38.977 24.5385C39.6931 23.7196 40.0646 22.6554 40.0137 21.5687C39.9628 20.4821 39.4934 19.4573 38.7038 18.7089C37.9143 17.9605 36.8658 17.5467 35.778 17.554Z" fill="#06027D"/>
</svg>
